<?xml version="1.0" standalone="no"?>
<!DOCTYPE svg PUBLIC "-//W3C//DTD SVG 20010904//EN"
 "http://www.w3.org/TR/2001/REC-SVG-20010904/DTD/svg10.dtd">
<svg version="1.0" xmlns="http://www.w3.org/2000/svg"
 width="260.000000pt" height="260.000000pt" viewBox="0 0 260.000000 260.000000"
 preserveAspectRatio="xMidYMid meet">
<metadata>
Created by potrace 1.14, written by Peter Selinger 2001-2017
</metadata>
<g transform="translate(0.000000,260.000000) scale(0.100000,-0.100000)"
fill="#000000" stroke="none">
<path d="M0 1300 l0 -1300 1300 0 1300 0 0 1300 0 1300 -1300 0 -1300 0 0
-1300z m1420 606 c0 -2 -3 -11 -6 -20 -9 -23 -24 -20 -24 4 0 11 7 20 15 20 8
0 15 -2 15 -4z m0 -73 c30 -17 43 -43 40 -79 0 -12 6 -28 14 -36 8 -9 13 -24
10 -34 -4 -13 4 -26 25 -42 20 -15 31 -31 31 -47 0 -14 5 -25 10 -25 6 0 10
-13 10 -30 0 -16 4 -30 9 -30 5 0 12 -12 17 -27 9 -33 7 -24 23 -93 8 -30 20
-63 28 -72 8 -9 17 -36 20 -60 3 -24 12 -47 19 -51 8 -4 14 -19 14 -32 0 -14
5 -25 10 -25 6 0 10 -13 10 -30 0 -16 5 -30 11 -30 7 0 9 -11 6 -26 -3 -17 1
-33 12 -43 24 -25 44 -68 37 -80 -4 -6 2 -21 13 -33 23 -24 26 -34 11 -43 -17
-10 -11 -22 12 -29 18 -4 20 -8 10 -18 -10 -10 -17 -10 -34 1 -16 10 -22 10
-28 1 -6 -10 -15 -7 -38 9 -17 11 -39 21 -50 21 -11 0 -23 6 -25 13 -3 7 -6 5
-6 -5 -1 -16 -4 -16 -36 -2 -20 8 -40 12 -46 9 -5 -4 -11 0 -14 7 -4 9 -23 14
-55 14 -27 0 -56 7 -65 14 -10 8 -35 15 -56 16 -22 1 -46 7 -54 14 -8 6 -19 9
-25 5 -5 -3 -16 -3 -22 2 -15 8 -19 9 -65 11 -24 2 -33 7 -34 20 0 10 -3 12
-6 5 -6 -15 -39 -17 -48 -3 -3 6 -19 10 -35 10 -16 0 -31 4 -34 9 -3 5 -14 7
-24 4 -10 -2 -24 2 -31 10 -7 9 -21 13 -33 9 -13 -3 -26 1 -34 13 -9 12 -21
16 -35 12 -12 -3 -35 -3 -50 0 -23 4 -29 11 -30 32 -2 23 -2 24 -6 4 -4 -23
-14 -29 -26 -17 -4 4 -20 8 -37 9 -39 3 -48 12 -28 28 19 15 31 47 18 47 -18
0 -10 30 13 54 12 12 23 35 25 51 2 33 0 30 31 40 17 5 22 4 19 -6 -3 -8 -10
-15 -16 -15 -25 -3 -25 -4 -7 -17 19 -15 13 -37 -10 -37 -7 0 -15 -7 -19 -15
-3 -10 1 -15 13 -15 11 0 21 6 24 13 2 6 8 8 13 4 5 -4 4 -11 -2 -15 -13 -10
-44 -59 -44 -72 0 -21 17 -9 42 29 17 25 22 44 17 52 -5 8 -9 24 -9 37 0 18 5
22 30 22 24 0 35 7 48 30 22 38 32 38 32 0 0 -20 -5 -30 -15 -30 -8 0 -15 -7
-15 -16 0 -8 4 -13 9 -9 5 3 12 1 16 -4 3 -6 12 -8 19 -5 13 5 9 55 -9 97 -5
13 -2 17 14 17 12 0 21 -4 21 -9 0 -5 13 -11 30 -13 16 -3 28 -2 25 0 -3 3 -1
10 4 16 6 8 -2 11 -27 12 -48 2 -95 21 -86 35 6 11 58 8 103 -6 23 -8 24 -6
18 24 -6 29 -5 32 12 26 16 -5 18 -2 14 15 -3 11 -1 20 5 20 6 0 13 -18 17
-41 7 -39 8 -40 25 -22 9 10 15 22 12 27 -2 4 2 12 9 17 10 6 8 9 -8 9 -13 0
-23 5 -23 10 0 6 -9 10 -20 10 -11 0 -20 7 -20 15 0 8 -4 15 -10 15 -5 0 -10
7 -10 15 0 8 5 15 10 15 6 0 10 6 10 14 0 16 24 38 33 30 3 -3 1 -15 -6 -25
-9 -14 -9 -21 0 -30 13 -13 12 -13 28 36 2 8 9 15 15 15 7 0 9 -8 5 -21 -6
-18 -3 -20 27 -17 18 2 38 10 45 19 7 9 26 19 43 22 35 8 48 31 32 58 -7 10
-12 27 -12 36 1 16 2 16 16 -2 13 -17 16 -18 24 -5 7 11 4 17 -10 24 -29 13
-26 86 4 86 20 1 20 2 4 14 -10 7 -18 16 -18 20 0 10 25 7 37 -5 14 -14 5 -49
-13 -49 -17 0 -17 -10 -1 -31 13 -17 52 -35 42 -20 -3 5 -1 12 5 16 15 9 12
25 -5 25 -18 0 -19 23 -2 50 10 17 9 22 -3 30 -8 5 -11 12 -8 16 14 13 40 -26
34 -51 -7 -27 -6 -28 18 -19 18 7 22 34 5 34 -6 0 -9 9 -6 20 3 11 1 20 -4 20
-5 0 -9 5 -9 10 0 14 8 13 40 -7z m-110 -13 c0 -5 -7 -10 -15 -10 -8 0 -15 5
-15 10 0 6 7 10 15 10 8 0 15 -4 15 -10z m-40 -40 c0 -5 -4 -10 -10 -10 -5 0
-10 5 -10 10 0 6 5 10 10 10 6 0 10 -4 10 -10z m-24 -47 c16 -22 17 -33 3 -33
-14 0 -39 25 -39 39 0 17 21 13 36 -6z m94 -13 c0 -5 -4 -10 -10 -10 -5 0 -10
5 -10 10 0 6 5 10 10 10 6 0 10 -4 10 -10z m-125 -11 c4 -5 0 -18 -9 -28 -9
-10 -16 -22 -16 -27 0 -5 5 -1 11 9 14 23 33 22 26 -3 -3 -11 -1 -17 4 -14 12
7 39 -20 39 -39 0 -27 -13 -26 -49 3 -19 17 -42 30 -49 30 -10 0 -13 9 -10 30
3 17 1 30 -4 30 -4 0 -8 5 -8 10 0 13 57 13 65 -1z m-85 -69 c0 -5 -4 -10 -10
-10 -5 0 -10 5 -10 10 0 6 5 10 10 10 6 0 10 -4 10 -10z m5 -50 c-5 -8 -11 -8
-17 -2 -6 6 -7 16 -3 22 5 8 11 8 17 2 6 -6 7 -16 3 -22z m45 -1 c0 -10 -7
-19 -15 -19 -15 0 -21 31 -9 43 11 10 24 -3 24 -24z m40 -9 c0 -11 -4 -20 -10
-20 -5 0 -10 9 -10 20 0 11 5 20 10 20 6 0 10 -9 10 -20z m-193 -105 c8 -9 13
-19 9 -22 -7 -7 -36 16 -36 28 0 13 10 11 27 -6z m-57 -19 c0 -16 -18 -31 -27
-22 -8 8 5 36 17 36 5 0 10 -6 10 -14z m-50 -6 c0 -5 -5 -10 -11 -10 -5 0 -7
5 -4 10 3 6 8 10 11 10 2 0 4 -4 4 -10z m100 -31 c0 -6 -25 -19 -35 -19 -5 0
-13 39 -8 44 6 6 43 -16 43 -25z m-106 -30 c-3 -5 -10 -7 -15 -3 -5 3 -7 10
-3 15 3 5 10 7 15 3 5 -3 7 -10 3 -15z m-84 -69 c0 -5 -4 -10 -10 -10 -5 0
-10 5 -10 10 0 6 5 10 10 10 6 0 10 -4 10 -10z m44 -21 c-3 -5 -10 -7 -15 -3
-5 3 -7 10 -3 15 3 5 10 7 15 3 5 -3 7 -10 3 -15z m-204 -119 c0 -5 -4 -10
-10 -10 -5 0 -10 5 -10 10 0 6 5 10 10 10 6 0 10 -4 10 -10z m-17 -66 c9 -4
17 -10 17 -14 0 -15 -26 -18 -43 -5 -20 14 -23 40 -4 31 6 -3 20 -9 30 -12z
m67 6 c0 -5 -4 -10 -10 -10 -5 0 -10 5 -10 10 0 6 5 10 10 10 6 0 10 -4 10
-10z"/>
<path d="M1420 1736 c0 -9 5 -16 10 -16 6 0 10 4 10 9 0 6 -4 13 -10 16 -5 3
-10 -1 -10 -9z"/>
<path d="M1330 1650 c0 -5 5 -10 10 -10 6 0 10 5 10 10 0 6 -4 10 -10 10 -5 0
-10 -4 -10 -10z"/>
<path d="M1405 1640 c-3 -5 1 -10 10 -10 9 0 13 5 10 10 -3 6 -8 10 -10 10 -2
0 -7 -4 -10 -10z"/>
<path d="M1330 1600 c0 -11 7 -20 15 -20 17 0 18 2 9 24 -9 23 -24 20 -24 -4z"/>
<path d="M1354 1558 c-8 -12 10 -16 34 -7 12 5 22 10 22 13 0 7 -52 2 -56 -6z"/>
<path d="M1127 1484 c-8 -8 1 -24 14 -24 5 0 9 7 9 15 0 15 -12 20 -23 9z"/>
<path d="M1440 1470 c0 -5 5 -10 10 -10 6 0 10 5 10 10 0 6 -4 10 -10 10 -5 0
-10 -4 -10 -10z"/>
<path d="M1201 1451 c-7 -5 -9 -11 -5 -14 5 -3 15 1 22 9 14 16 5 18 -17 5z"/>
<path d="M1060 1321 c0 -5 6 -14 14 -20 11 -9 19 -9 35 1 22 14 28 28 11 28
-5 0 -10 -4 -10 -10 0 -5 -7 -10 -15 -10 -8 0 -15 5 -15 10 0 6 -4 10 -10 10
-5 0 -10 -4 -10 -9z"/>
<path d="M1366 1254 c-4 -9 -4 -19 -1 -22 2 -3 7 3 11 12 4 9 4 19 1 22 -2 3
-7 -3 -11 -12z"/>
<path d="M1035 1250 c-3 -5 -1 -10 4 -10 6 0 11 5 11 10 0 6 -2 10 -4 10 -3 0
-8 -4 -11 -10z"/>
<path d="M860 1210 c0 -5 5 -10 10 -10 6 0 10 5 10 10 0 6 -4 10 -10 10 -5 0
-10 -4 -10 -10z"/>
<path d="M920 1154 c0 -8 5 -12 10 -9 6 4 8 11 5 16 -9 14 -15 11 -15 -7z"/>
<path d="M1555 1150 c-3 -5 -1 -10 4 -10 6 0 11 5 11 10 0 6 -2 10 -4 10 -3 0
-8 -4 -11 -10z"/>
<path d="M905 1110 c3 -5 8 -10 11 -10 2 0 4 5 4 10 0 6 -5 10 -11 10 -5 0 -7
-4 -4 -10z"/>
<path d="M1315 1100 c-3 -5 -1 -10 4 -10 6 0 11 5 11 10 0 6 -2 10 -4 10 -3 0
-8 -4 -11 -10z"/>
<path d="M847 1093 c-4 -3 -7 -11 -7 -17 0 -6 5 -5 12 2 6 6 9 14 7 17 -3 3
-9 2 -12 -2z"/>
<path d="M1240 1087 c0 -10 8 -17 18 -17 9 0 13 4 7 8 -5 4 -13 11 -17 16 -5
5 -8 2 -8 -7z"/>
<path d="M1540 996 c0 -2 7 -9 15 -16 12 -10 15 -10 15 4 0 9 -7 16 -15 16 -8
0 -15 -2 -15 -4z"/>
</g>
</svg>
